<svg width="32" height="32" viewBox="-11 -31 150 150" fill="none" xmlns="http://www.w3.org/2000/svg">
<style>
  path { fill: #ede8e0; }
  @media (prefers-color-scheme: light) { path { fill: #0a0908; } }
</style>
<!-- D from logo -->
<path d="M0 88V1.13L29.203 1.13C35.2323 1.13 40.4683 2.28034 44.911 4.58101C49.433 6.88167 52.9237 10.1343 55.383 14.339C57.9217 18.4643 59.191 23.3433 59.191 28.976V60.035C59.191 65.5883 57.9217 70.4673 55.383 74.672C52.9237 78.8767 49.433 82.169 44.911 84.549C40.4683 86.8497 35.2323 88 29.203 88H0ZM17.85 71.34H29.203C32.8523 71.34 35.7877 70.3087 38.009 68.246C40.2303 66.1833 41.341 63.4463 41.341 60.035V28.976C41.341 25.644 40.2303 22.9467 38.009 20.884C35.7877 18.8213 32.8523 17.79 29.203 17.79H17.85V71.34Z"/>
<!-- 9 from logo, shifted left by 295 -->
<path d="M71.829 88L98.478 56.8333C97.954 57.3571 97.037 57.8809 95.728 58.4048C94.418 58.8849 92.694 59.125 90.555 59.125C86.059 59.125 81.716 57.9683 77.525 55.6548C73.378 53.3413 69.952 50.0456 67.246 45.7679C64.583 41.4464 63.251 36.2956 63.251 30.3155C63.251 24.4226 64.692 19.2064 67.573 14.6667C70.497 10.127 74.382 6.54762 79.228 3.92858C84.073 1.30953 89.442 0 95.335 0C101.359 0 106.793 1.24405 111.638 3.73214C116.484 6.17659 120.347 9.73413 123.228 14.4048C126.152 19.0318 127.615 24.5754 127.615 31.0357C127.615 38.1508 126.458 44.1528 124.144 49.0417C121.831 53.8869 119.19 58.0992 116.222 61.6786L94.746 88H71.829ZM95.4 43.4762C97.976 43.4762 100.289 42.8651 102.341 41.6429C104.436 40.4206 106.095 38.7619 107.317 36.6667C108.583 34.5714 109.216 32.2579 109.216 29.7262C109.216 27.1944 108.583 24.881 107.317 22.7857C106.095 20.6905 104.436 19.0317 102.341 17.8095C100.246 16.5873 97.932 15.9762 95.4 15.9762C92.869 15.9762 90.555 16.6091 88.46 17.875C86.408 19.0972 84.749 20.7559 83.484 22.8512C82.261 24.9028 81.65 27.1944 81.65 29.7262C81.65 32.2579 82.261 34.5714 83.484 36.6667C84.749 38.7619 86.43 40.4206 88.525 41.6429C90.621 42.8651 92.912 43.4762 95.4 43.4762Z"/>
</svg>
